<svg id="Calque_1" data-name="Calque 1" xmlns="http://www.w3.org/2000/svg" xmlns:xlink="http://www.w3.org/1999/xlink" viewBox="0 0 730.54 124.15"><defs><style>.cls-1{fill:url(#Dégradé_sans_nom_145);}</style><linearGradient id="Dégradé_sans_nom_145" x1="439.5" y1="103.1" x2="780.71" y2="103.1" gradientUnits="userSpaceOnUse"><stop offset="0" stop-color="#26a953"/><stop offset="0.01" stop-color="#26aa55"/><stop offset="0.1" stop-color="#28bd75"/><stop offset="0.19" stop-color="#2ac988"/><stop offset="0.25" stop-color="#2acd8f"/><stop offset="0.48" stop-color="#e9f76a"/><stop offset="0.59" stop-color="#edc566"/><stop offset="0.77" stop-color="#f47b61"/><stop offset="0.88" stop-color="#ed5359"/><stop offset="1" stop-color="#e72d51"/></linearGradient></defs><g id="group-1"><g id="group-2"><path id="Path-4" d="M100.68,63.75V164.08H89.19V63.75h-39V53.07h89.24V63.75Z" transform="translate(-50.18 -41.98)"/><path id="Path-5" d="M171.86,166.13c-22.58,0-39-16.83-39-42.7s17.25-43.12,40.24-43.12,39,16.84,39,42.71C211.69,148.89,194.44,166.13,171.86,166.13Zm.41-75.55c-17.25,0-28.33,13.55-28.33,32.85,0,19.71,11.49,33.26,28.74,33.26S201,143.14,201,123.84C201,103.72,189.52,90.58,172.27,90.58Z" transform="translate(-50.18 -41.98)"/><path id="Path-6" d="M239.61,164.08H228.53V82.64l11.08-2.47V97.42c5.34-10.27,13.14-17.25,23.82-17.25a32.38,32.38,0,0,1,14.37,3.7l-2.87,10.26a25.48,25.48,0,0,0-12.32-3.69c-8.62,0-16.43,6.57-23,20.94Z" transform="translate(-50.18 -41.98)"/><path id="Path-7" d="M321.06,166.13c-24.64,0-39.84-17.66-39.84-42.7,0-25.46,16.84-43.12,39.84-43.12,9.85,0,18.47,2.46,25.45,7l-2.87,9.86a40.6,40.6,0,0,0-22.58-6.57c-17.66,0-28.34,13.14-28.34,32.44,0,19.71,11.5,32.85,28.75,32.85a41.7,41.7,0,0,0,22.58-6.57l2.46,10.26A52.07,52.07,0,0,1,321.06,166.13Z" transform="translate(-50.18 -41.98)"/><path id="Path-8" d="M414.41,164.08v-52.7c0-14.37-5.75-20.53-17.25-20.53-9.45,0-18.48,4.93-25.05,11.5v61.73H361V44.45L372.11,42V93.45c8.62-8.62,19.3-12.73,28.33-12.73,15.61,0,25.46,10.27,25.46,27.92v55.58H414.41Z" transform="translate(-50.18 -41.98)"/></g></g><path class="cls-1" d="M503.19,157.21a45.18,45.18,0,0,1-11.4,5A47.81,47.81,0,0,1,478.48,164,41.5,41.5,0,0,1,462.21,161,34,34,0,0,1,450,152.34,38.27,38.27,0,0,1,442.2,139a51.17,51.17,0,0,1-2.7-17,47.69,47.69,0,0,1,3-17.14,40.14,40.14,0,0,1,8.18-13.31A37.24,37.24,0,0,1,463,82.92a38.53,38.53,0,0,1,15.66-3.14,51,51,0,0,1,13.58,1.74,40.31,40.31,0,0,1,11.31,5l-2.79,9.74a40.69,40.69,0,0,0-22.1-6.43A28,28,0,0,0,467,92.23a25.6,25.6,0,0,0-8.88,6.52,28.41,28.41,0,0,0-5.56,10,44.7,44.7,0,0,0,.08,26.18,29.54,29.54,0,0,0,5.74,10.18,24.94,24.94,0,0,0,9,6.53,28.48,28.48,0,0,0,11.48,2.26,38.73,38.73,0,0,0,11.83-1.83,42,42,0,0,0,10.27-4.78Zm86-52.8a49.34,49.34,0,0,1,2.87,17.31,46.93,46.93,0,0,1-3,17.31,41.34,41.34,0,0,1-8.27,13.31A36,36,0,0,1,568.44,161,39.06,39.06,0,0,1,553,164a39.47,39.47,0,0,1-15.4-3,35.14,35.14,0,0,1-12.18-8.44,38.75,38.75,0,0,1-8-13.22,49.57,49.57,0,0,1-2.87-17.31,47,47,0,0,1,3-17.32,41.45,41.45,0,0,1,8.27-13.31,36.08,36.08,0,0,1,12.44-8.61,41.4,41.4,0,0,1,31-.09,34.45,34.45,0,0,1,12.1,8.44A39.67,39.67,0,0,1,589.23,104.41Zm-7.74,17.66a42,42,0,0,0-2-13.31,29.57,29.57,0,0,0-5.74-10.27,25.94,25.94,0,0,0-9-6.61,29.24,29.24,0,0,0-23,0,24.64,24.64,0,0,0-8.88,6.7,31.47,31.47,0,0,0-5.65,10.26,39.84,39.84,0,0,0-2,12.88,41.74,41.74,0,0,0,2,13.31A29.43,29.43,0,0,0,533,145.3a26,26,0,0,0,9,6.61,29.24,29.24,0,0,0,23,0,24.63,24.63,0,0,0,8.87-6.7A31.61,31.61,0,0,0,579.49,135,39.87,39.87,0,0,0,581.49,122.07Zm28,39.67V44.46l10.79-2.26V161.74Zm102.75-57.33a49.57,49.57,0,0,1,2.87,17.31,46.93,46.93,0,0,1-3,17.31,41.32,41.32,0,0,1-8.26,13.31A36,36,0,0,1,691.45,161,39,39,0,0,1,676,164a39.43,39.43,0,0,1-15.4-3,35,35,0,0,1-12.18-8.44,38.92,38.92,0,0,1-8-13.22,49.57,49.57,0,0,1-2.87-17.31,47,47,0,0,1,3-17.32,41.43,41.43,0,0,1,8.26-13.31,36.08,36.08,0,0,1,12.44-8.61,41.43,41.43,0,0,1,31-.09,34.5,34.5,0,0,1,12.09,8.44A39.86,39.86,0,0,1,712.25,104.41Zm-7.75,17.66a41.69,41.69,0,0,0-2-13.31,29.41,29.41,0,0,0-5.74-10.27,25.85,25.85,0,0,0-9-6.61,29.24,29.24,0,0,0-23,0,24.52,24.52,0,0,0-8.87,6.7,31.3,31.3,0,0,0-5.66,10.26,40.11,40.11,0,0,0-2,12.88,42,42,0,0,0,2,13.31,29.45,29.45,0,0,0,5.75,10.27,26,26,0,0,0,9,6.61,29.22,29.22,0,0,0,23,0,24.75,24.75,0,0,0,8.88-6.7A31.59,31.59,0,0,0,702.5,135,39.6,39.6,0,0,0,704.5,122.07Zm38.8,39.67H732.52V82.05l10.78-2.27V96.84a37,37,0,0,1,9.84-12.44,21.31,21.31,0,0,1,13.65-4.62,26.68,26.68,0,0,1,7.57,1,29.45,29.45,0,0,1,6.35,2.61l-2.78,10.09A26.7,26.7,0,0,0,772.28,91a21.66,21.66,0,0,0-6.53-1q-6.27,0-12,4.87T743.3,110.58Z" transform="translate(-50.18 -41.98)"/></svg>